<?xml version="1.0" encoding="UTF-8" standalone="no"?>
<!-- Created with Inkscape (http://www.inkscape.org/) -->

<svg
   xmlns:dc="http://purl.org/dc/elements/1.1/"
   xmlns:cc="http://creativecommons.org/ns#"
   xmlns:rdf="http://www.w3.org/1999/02/22-rdf-syntax-ns#"
   xmlns:svg="http://www.w3.org/2000/svg"
   xmlns="http://www.w3.org/2000/svg"
   xmlns:sodipodi="http://sodipodi.sourceforge.net/DTD/sodipodi-0.dtd"
   xmlns:inkscape="http://www.inkscape.org/namespaces/inkscape"
   width="512"
   height="512"
   viewBox="0 0 135.46666 135.46667"
   version="1.1"
   id="svg8"
   inkscape:version="0.92.5 (2060ec1f9f, 2020-04-08)"
   sodipodi:docname="inkscape.svg">
  <defs
     id="defs2" />
  <sodipodi:namedview
     id="base"
     pagecolor="#ffffff"
     bordercolor="#666666"
     borderopacity="1.0"
     inkscape:pageopacity="0.0"
     inkscape:pageshadow="2"
     inkscape:zoom="0.98994949"
     inkscape:cx="173.43576"
     inkscape:cy="246.76207"
     inkscape:document-units="px"
     inkscape:current-layer="layer1"
     showgrid="false"
     inkscape:pagecheckerboard="true"
     units="px"
     borderlayer="true"
     inkscape:window-width="997"
     inkscape:window-height="752"
     inkscape:window-x="383"
     inkscape:window-y="135"
     inkscape:window-maximized="0" />
  <metadata
     id="metadata5">
    <rdf:RDF>
      <cc:Work
         rdf:about="">
        <dc:format>image/svg+xml</dc:format>
        <dc:type
           rdf:resource="http://purl.org/dc/dcmitype/StillImage" />
        <dc:title></dc:title>
      </cc:Work>
    </rdf:RDF>
  </metadata>
  <g
     inkscape:label="Layer 1"
     inkscape:groupmode="layer"
     id="layer1"
     transform="translate(0,-161.53332)">
    <ellipse
       id="path3713"
       cx="67.846725"
       cy="229.34224"
       rx="67.46875"
       ry="67.657738"
       style="opacity:1;stroke-width:0.35000485" />
    <path
       style="opacity:1;stroke-width:0.71428573"
       d="M 244.97186,511.48446 C 166.01015,507.15098 96.045646,469.14205 49.866631,405.49155 23.502673,369.15299 6.9207268,324.66863 2.799268,279.22401 1.6837545,266.92398 2.2981763,233.81286 3.8427378,222.99155 12.245739,164.11952 38.131242,112.81826 79.723568,72.606905 119.22089,34.421006 168.07843,10.760682 223.54329,2.9590928 234.66954,1.3940943 266.17834,0.77330983 278.62903,1.8737966 339.46309,7.2507711 395.80023,34.098193 438.54329,78.08082 c 11.99604,12.343936 20.15799,22.44316 29.65716,36.69644 30.51649,45.78925 45.28986,99.45005 42.4518,154.19624 -2.82944,54.58014 -21.47595,103.85794 -55.71207,147.23233 -7.9801,10.11015 -31.2722,33.17703 -41.39689,40.99665 -45.09599,34.829 -95.46798,52.86912 -151.42857,54.23229 -6.875,0.16747 -14.58929,0.18984 -17.14286,0.0497 z"
       id="path4522"
       inkscape:connector-curvature="0"
       transform="matrix(0.26458333,0,0,0.26458333,0,161.53332)" />
    <path
       style="opacity:1;fill:#00b4ea;fill-opacity:1;stroke-width:0.71428573"
       d="m 254.99414,1.2480469 c -9.43704,0.066361 -18.88177,0.4188878 -24.66602,1.0292969 -29.89974,3.1553058 -58.19837,11.2421642 -85,24.2929682 C 66.236727,65.083149 12.480818,141.79957 3.1894531,229.41992 c -1.403984,13.23999 -1.3947686,40.20919 0.017578,53.6582 6.9291799,65.98282 39.1488129,126.45543 90.1445309,169.1875 42.288398,35.43574 95.143958,56.22085 150.548828,59.20313 8.57555,0.4616 30.26336,-0.28488 40.71484,-1.40039 49.84918,-5.32054 99.17173,-26.83687 137.5,-59.98438 9.64126,-8.33807 25.78132,-25.02106 33.1211,-34.23437 7.82168,-9.81819 18.11955,-25.24907 24.24414,-36.32813 44.2417,-80.03093 41.69774,-180.22198 -6.54102,-257.60156 C 430.23306,53.414792 359.05761,9.2380251 279.61523,1.9296875 273.86193,1.4004098 264.43118,1.1816862 254.99414,1.2480469 Z m 3.0121,29.6691111 C 378.04191,35.547841 481.03562,128.32873 481.03519,257.21523 481.03562,386.10173 364.08553,482.77237 250.93517,483.5133 140.82179,484.23435 28.917916,379.0299 30.938642,248.12386 42.049898,119.23812 145.32812,26.570312 258.00624,30.917158 Z"
       transform="matrix(0.26458333,0,0,0.26458333,0,161.53332)"
       id="path4524"
       inkscape:connector-curvature="0"
       sodipodi:nodetypes="ssssssssscssssscscs" />
    <path
       style="opacity:1;fill:#05b0de;fill-opacity:0;stroke-width:0.71428573"
       d="m 242.829,511.42103 c -8.37576,-0.40379 -24.46878,-2.40715 -33.92857,-4.22362 C 168.88028,499.51267 132.78804,483.05956 99.257575,457.2153 89.550739,449.73356 66.080135,426.57039 58.39149,416.88449 26.592553,376.82527 7.8085382,330.80803 2.8845794,280.90321 1.7690504,269.59721 1.93754,241.23519 3.1904238,229.42012 8.3680863,180.59321 27.580964,134.02556 58.296871,95.854584 66.986222,85.056234 82.134911,69.626532 92.829004,60.68186 130.35641,29.293477 172.02343,10.684038 221.40043,3.2589363 233.82295,1.3908922 265.6348,0.62262982 279.05179,1.8666452 338.09358,7.3409679 391.49717,31.99617 433.80988,73.314884 c 63.33369,61.845866 89.94724,150.078126 71.5143,237.092296 -12.98038,61.27491 -49.54166,116.77606 -101.59748,154.22809 -15.1672,10.91218 -40.89964,24.59713 -58.50162,31.11216 -32.20398,11.91967 -67.6667,17.34789 -102.39608,15.6736 z"
       id="path4526"
       inkscape:connector-curvature="0"
       transform="matrix(0.26458333,0,0,0.26458333,0,161.53332)" />
    <path
       style="opacity:1;fill:#05b0de;fill-opacity:0;stroke-width:0.71428573"
       d="m 242.829,511.42103 c -8.37576,-0.40379 -24.46878,-2.40715 -33.92857,-4.22362 C 168.88028,499.51267 132.78804,483.05956 99.257575,457.2153 89.550739,449.73356 66.080135,426.57039 58.39149,416.88449 26.592553,376.82527 7.8085382,330.80803 2.8845794,280.90321 1.7690504,269.59721 1.93754,241.23519 3.1904238,229.42012 8.3680863,180.59321 27.580964,134.02556 58.296871,95.854584 66.986222,85.056234 82.134911,69.626532 92.829004,60.68186 130.35641,29.293477 172.02343,10.684038 221.40043,3.2589363 233.82295,1.3908922 265.6348,0.62262982 279.05179,1.8666452 338.09358,7.3409679 391.49717,31.99617 433.80988,73.314884 c 63.33369,61.845866 89.94724,150.078126 71.5143,237.092296 -12.98038,61.27491 -49.54166,116.77606 -101.59748,154.22809 -15.1672,10.91218 -40.89964,24.59713 -58.50162,31.11216 -32.20398,11.91967 -67.6667,17.34789 -102.39608,15.6736 z"
       id="path4528"
       inkscape:connector-curvature="0"
       transform="matrix(0.26458333,0,0,0.26458333,0,161.53332)" />
    <path
       style="opacity:1;fill:#05b0de;fill-opacity:0;stroke-width:0.71428573"
       d="m 242.829,511.42103 c -8.37576,-0.40379 -24.46878,-2.40715 -33.92857,-4.22362 C 168.88028,499.51267 132.78804,483.05956 99.257575,457.2153 89.550739,449.73356 66.080135,426.57039 58.39149,416.88449 26.592553,376.82527 7.8085382,330.80803 2.8845794,280.90321 1.7690504,269.59721 1.93754,241.23519 3.1904238,229.42012 8.3680863,180.59321 27.580964,134.02556 58.296871,95.854584 66.986222,85.056234 82.134911,69.626532 92.829004,60.68186 130.35641,29.293477 172.02343,10.684038 221.40043,3.2589363 233.82295,1.3908922 265.6348,0.62262982 279.05179,1.8666452 338.09358,7.3409679 391.49717,31.99617 433.80988,73.314884 c 63.33369,61.845866 89.94724,150.078126 71.5143,237.092296 -12.98038,61.27491 -49.54166,116.77606 -101.59748,154.22809 -15.1672,10.91218 -40.89964,24.59713 -58.50162,31.11216 -32.20398,11.91967 -67.6667,17.34789 -102.39608,15.6736 z"
       id="path4530"
       inkscape:connector-curvature="0"
       transform="matrix(0.26458333,0,0,0.26458333,0,161.53332)" />
    <path
       style="opacity:1;fill:#05b0de;fill-opacity:0;stroke-width:0.71428573"
       d="m 242.829,511.42103 c -8.37576,-0.40379 -24.46878,-2.40715 -33.92857,-4.22362 C 168.88028,499.51267 132.78804,483.05956 99.257575,457.2153 89.550739,449.73356 66.080135,426.57039 58.39149,416.88449 26.592553,376.82527 7.8085382,330.80803 2.8845794,280.90321 1.7690504,269.59721 1.93754,241.23519 3.1904238,229.42012 8.3680863,180.59321 27.580964,134.02556 58.296871,95.854584 66.986222,85.056234 82.134911,69.626532 92.829004,60.68186 130.35641,29.293477 172.02343,10.684038 221.40043,3.2589363 233.82295,1.3908922 265.6348,0.62262982 279.05179,1.8666452 338.09358,7.3409679 391.49717,31.99617 433.80988,73.314884 c 63.33369,61.845866 89.94724,150.078126 71.5143,237.092296 -12.98038,61.27491 -49.54166,116.77606 -101.59748,154.22809 -15.1672,10.91218 -40.89964,24.59713 -58.50162,31.11216 -32.20398,11.91967 -67.6667,17.34789 -102.39608,15.6736 z"
       id="path4532"
       inkscape:connector-curvature="0"
       transform="matrix(0.26458333,0,0,0.26458333,0,161.53332)" />
    <path
       style="opacity:1;fill:#05b0de;fill-opacity:0;stroke-width:0.71428573"
       d="m 242.829,511.42103 c -8.37576,-0.40379 -24.46878,-2.40715 -33.92857,-4.22362 C 168.88028,499.51267 132.78804,483.05956 99.257575,457.2153 89.550739,449.73356 66.080135,426.57039 58.39149,416.88449 26.592553,376.82527 7.8085382,330.80803 2.8845794,280.90321 1.7690504,269.59721 1.93754,241.23519 3.1904238,229.42012 8.3680863,180.59321 27.580964,134.02556 58.296871,95.854584 66.986222,85.056234 82.134911,69.626532 92.829004,60.68186 130.35641,29.293477 172.02343,10.684038 221.40043,3.2589363 233.82295,1.3908922 265.6348,0.62262982 279.05179,1.8666452 338.09358,7.3409679 391.49717,31.99617 433.80988,73.314884 c 63.33369,61.845866 89.94724,150.078126 71.5143,237.092296 -12.98038,61.27491 -49.54166,116.77606 -101.59748,154.22809 -15.1672,10.91218 -40.89964,24.59713 -58.50162,31.11216 -32.20398,11.91967 -67.6667,17.34789 -102.39608,15.6736 z"
       id="path4534"
       inkscape:connector-curvature="0"
       transform="matrix(0.26458333,0,0,0.26458333,0,161.53332)" />
    <path
       style="opacity:1;fill:#05b0de;fill-opacity:0;stroke-width:0.71428573"
       d="m 242.829,511.42103 c -8.37576,-0.40379 -24.46878,-2.40715 -33.92857,-4.22362 C 168.88028,499.51267 132.78804,483.05956 99.257575,457.2153 89.550739,449.73356 66.080135,426.57039 58.39149,416.88449 26.592553,376.82527 7.8085382,330.80803 2.8845794,280.90321 1.7690504,269.59721 1.93754,241.23519 3.1904238,229.42012 8.3680863,180.59321 27.580964,134.02556 58.296871,95.854584 66.986222,85.056234 82.134911,69.626532 92.829004,60.68186 130.35641,29.293477 172.02343,10.684038 221.40043,3.2589363 233.82295,1.3908922 265.6348,0.62262982 279.05179,1.8666452 338.09358,7.3409679 391.49717,31.99617 433.80988,73.314884 c 63.33369,61.845866 89.94724,150.078126 71.5143,237.092296 -12.98038,61.27491 -49.54166,116.77606 -101.59748,154.22809 -15.1672,10.91218 -40.89964,24.59713 -58.50162,31.11216 -32.20398,11.91967 -67.6667,17.34789 -102.39608,15.6736 z"
       id="path4536"
       inkscape:connector-curvature="0"
       transform="matrix(0.26458333,0,0,0.26458333,0,161.53332)" />
    <path
       style="opacity:1;fill:#05b0de;fill-opacity:0;stroke-width:0.71428573"
       d="m 242.829,511.42103 c -8.37576,-0.40379 -24.46878,-2.40715 -33.92857,-4.22362 C 168.88028,499.51267 132.78804,483.05956 99.257575,457.2153 89.550739,449.73356 66.080135,426.57039 58.39149,416.88449 26.592553,376.82527 7.8085382,330.80803 2.8845794,280.90321 1.7690504,269.59721 1.93754,241.23519 3.1904238,229.42012 8.3680863,180.59321 27.580964,134.02556 58.296871,95.854584 66.986222,85.056234 82.134911,69.626532 92.829004,60.68186 130.35641,29.293477 172.02343,10.684038 221.40043,3.2589363 233.82295,1.3908922 265.6348,0.62262982 279.05179,1.8666452 338.09358,7.3409679 391.49717,31.99617 433.80988,73.314884 c 63.33369,61.845866 89.94724,150.078126 71.5143,237.092296 -12.98038,61.27491 -49.54166,116.77606 -101.59748,154.22809 -15.1672,10.91218 -40.89964,24.59713 -58.50162,31.11216 -32.20398,11.91967 -67.6667,17.34789 -102.39608,15.6736 z"
       id="path4538"
       inkscape:connector-curvature="0"
       transform="matrix(0.26458333,0,0,0.26458333,0,161.53332)" />
    <path
       style="opacity:1;fill:#05b0de;fill-opacity:0;stroke-width:0.71428573"
       d="m 242.829,511.42103 c -8.37576,-0.40379 -24.46878,-2.40715 -33.92857,-4.22362 C 168.88028,499.51267 132.78804,483.05956 99.257575,457.2153 89.550739,449.73356 66.080135,426.57039 58.39149,416.88449 26.592553,376.82527 7.8085382,330.80803 2.8845794,280.90321 1.7690504,269.59721 1.93754,241.23519 3.1904238,229.42012 8.3680863,180.59321 27.580964,134.02556 58.296871,95.854584 66.986222,85.056234 82.134911,69.626532 92.829004,60.68186 130.35641,29.293477 172.02343,10.684038 221.40043,3.2589363 233.82295,1.3908922 265.6348,0.62262982 279.05179,1.8666452 338.09358,7.3409679 391.49717,31.99617 433.80988,73.314884 c 63.33369,61.845866 89.94724,150.078126 71.5143,237.092296 -12.98038,61.27491 -49.54166,116.77606 -101.59748,154.22809 -15.1672,10.91218 -40.89964,24.59713 -58.50162,31.11216 -32.20398,11.91967 -67.6667,17.34789 -102.39608,15.6736 z"
       id="path4540"
       inkscape:connector-curvature="0"
       transform="matrix(0.26458333,0,0,0.26458333,0,161.53332)" />
    <path
       style="opacity:1;fill:#05b0de;fill-opacity:0;stroke-width:0.71428573"
       d="m 242.829,511.42103 c -8.37576,-0.40379 -24.46878,-2.40715 -33.92857,-4.22362 C 168.88028,499.51267 132.78804,483.05956 99.257575,457.2153 89.550739,449.73356 66.080135,426.57039 58.39149,416.88449 26.592553,376.82527 7.8085382,330.80803 2.8845794,280.90321 1.7690504,269.59721 1.93754,241.23519 3.1904238,229.42012 8.3680863,180.59321 27.580964,134.02556 58.296871,95.854584 66.986222,85.056234 82.134911,69.626532 92.829004,60.68186 130.35641,29.293477 172.02343,10.684038 221.40043,3.2589363 233.82295,1.3908922 265.6348,0.62262982 279.05179,1.8666452 338.09358,7.3409679 391.49717,31.99617 433.80988,73.314884 c 63.33369,61.845866 89.94724,150.078126 71.5143,237.092296 -12.98038,61.27491 -49.54166,116.77606 -101.59748,154.22809 -15.1672,10.91218 -40.89964,24.59713 -58.50162,31.11216 -32.20398,11.91967 -67.6667,17.34789 -102.39608,15.6736 z"
       id="path4542"
       inkscape:connector-curvature="0"
       transform="matrix(0.26458333,0,0,0.26458333,0,161.53332)" />
    <path
       style="opacity:1;fill:#05b0de;fill-opacity:0;stroke-width:0.71428573"
       d="m 242.829,511.42103 c -8.37576,-0.40379 -24.46878,-2.40715 -33.92857,-4.22362 C 168.88028,499.51267 132.78804,483.05956 99.257575,457.2153 89.550739,449.73356 66.080135,426.57039 58.39149,416.88449 26.592553,376.82527 7.8085382,330.80803 2.8845794,280.90321 1.7690504,269.59721 1.93754,241.23519 3.1904238,229.42012 8.3680863,180.59321 27.580964,134.02556 58.296871,95.854584 66.986222,85.056234 82.134911,69.626532 92.829004,60.68186 130.35641,29.293477 172.02343,10.684038 221.40043,3.2589363 233.82295,1.3908922 265.6348,0.62262982 279.05179,1.8666452 338.09358,7.3409679 391.49717,31.99617 433.80988,73.314884 c 63.33369,61.845866 89.94724,150.078126 71.5143,237.092296 -12.98038,61.27491 -49.54166,116.77606 -101.59748,154.22809 -15.1672,10.91218 -40.89964,24.59713 -58.50162,31.11216 -32.20398,11.91967 -67.6667,17.34789 -102.39608,15.6736 z"
       id="path4544"
       inkscape:connector-curvature="0"
       transform="matrix(0.26458333,0,0,0.26458333,0,161.53332)" />
    <path
       style="opacity:1;fill:#05b0de;fill-opacity:0;stroke-width:0.71428573"
       d="m 242.829,511.42103 c -8.37576,-0.40379 -24.46878,-2.40715 -33.92857,-4.22362 C 168.88028,499.51267 132.78804,483.05956 99.257575,457.2153 89.550739,449.73356 66.080135,426.57039 58.39149,416.88449 26.592553,376.82527 7.8085382,330.80803 2.8845794,280.90321 1.7690504,269.59721 1.93754,241.23519 3.1904238,229.42012 8.3680863,180.59321 27.580964,134.02556 58.296871,95.854584 66.986222,85.056234 82.134911,69.626532 92.829004,60.68186 130.35641,29.293477 172.02343,10.684038 221.40043,3.2589363 233.82295,1.3908922 265.6348,0.62262982 279.05179,1.8666452 338.09358,7.3409679 391.49717,31.99617 433.80988,73.314884 c 63.33369,61.845866 89.94724,150.078126 71.5143,237.092296 -12.98038,61.27491 -49.54166,116.77606 -101.59748,154.22809 -15.1672,10.91218 -40.89964,24.59713 -58.50162,31.11216 -32.20398,11.91967 -67.6667,17.34789 -102.39608,15.6736 z"
       id="path4546"
       inkscape:connector-curvature="0"
       transform="matrix(0.26458333,0,0,0.26458333,0,161.53332)" />
    <path
       style="opacity:1;fill:#05b0de;fill-opacity:0;stroke-width:0.71428573"
       d="m 242.829,511.42103 c -8.37576,-0.40379 -24.46878,-2.40715 -33.92857,-4.22362 C 168.88028,499.51267 132.78804,483.05956 99.257575,457.2153 89.550739,449.73356 66.080135,426.57039 58.39149,416.88449 26.592553,376.82527 7.8085382,330.80803 2.8845794,280.90321 1.7690504,269.59721 1.93754,241.23519 3.1904238,229.42012 8.3680863,180.59321 27.580964,134.02556 58.296871,95.854584 66.986222,85.056234 82.134911,69.626532 92.829004,60.68186 130.35641,29.293477 172.02343,10.684038 221.40043,3.2589363 233.82295,1.3908922 265.6348,0.62262982 279.05179,1.8666452 338.09358,7.3409679 391.49717,31.99617 433.80988,73.314884 c 63.33369,61.845866 89.94724,150.078126 71.5143,237.092296 -12.98038,61.27491 -49.54166,116.77606 -101.59748,154.22809 -15.1672,10.91218 -40.89964,24.59713 -58.50162,31.11216 -32.20398,11.91967 -67.6667,17.34789 -102.39608,15.6736 z"
       id="path4548"
       inkscape:connector-curvature="0"
       transform="matrix(0.26458333,0,0,0.26458333,0,161.53332)" />
    <path
       style="opacity:1;fill:#05b0de;fill-opacity:0;stroke-width:0.71428573"
       d="m 242.829,511.42103 c -8.37576,-0.40379 -24.46878,-2.40715 -33.92857,-4.22362 C 168.88028,499.51267 132.78804,483.05956 99.257575,457.2153 89.550739,449.73356 66.080135,426.57039 58.39149,416.88449 26.592553,376.82527 7.8085382,330.80803 2.8845794,280.90321 1.7690504,269.59721 1.93754,241.23519 3.1904238,229.42012 8.3680863,180.59321 27.580964,134.02556 58.296871,95.854584 66.986222,85.056234 82.134911,69.626532 92.829004,60.68186 130.35641,29.293477 172.02343,10.684038 221.40043,3.2589363 233.82295,1.3908922 265.6348,0.62262982 279.05179,1.8666452 338.09358,7.3409679 391.49717,31.99617 433.80988,73.314884 c 63.33369,61.845866 89.94724,150.078126 71.5143,237.092296 -12.98038,61.27491 -49.54166,116.77606 -101.59748,154.22809 -15.1672,10.91218 -40.89964,24.59713 -58.50162,31.11216 -32.20398,11.91967 -67.6667,17.34789 -102.39608,15.6736 z"
       id="path4550"
       inkscape:connector-curvature="0"
       transform="matrix(0.26458333,0,0,0.26458333,0,161.53332)" />
    <path
       style="opacity:1;fill:#05b0de;fill-opacity:0;stroke-width:0.71428573"
       d="m 242.829,511.42103 c -8.37576,-0.40379 -24.46878,-2.40715 -33.92857,-4.22362 C 168.88028,499.51267 132.78804,483.05956 99.257575,457.2153 89.550739,449.73356 66.080135,426.57039 58.39149,416.88449 26.592553,376.82527 7.8085382,330.80803 2.8845794,280.90321 1.7690504,269.59721 1.93754,241.23519 3.1904238,229.42012 8.3680863,180.59321 27.580964,134.02556 58.296871,95.854584 66.986222,85.056234 82.134911,69.626532 92.829004,60.68186 130.35641,29.293477 172.02343,10.684038 221.40043,3.2589363 233.82295,1.3908922 265.6348,0.62262982 279.05179,1.8666452 338.09358,7.3409679 391.49717,31.99617 433.80988,73.314884 c 63.33369,61.845866 89.94724,150.078126 71.5143,237.092296 -12.98038,61.27491 -49.54166,116.77606 -101.59748,154.22809 -15.1672,10.91218 -40.89964,24.59713 -58.50162,31.11216 -32.20398,11.91967 -67.6667,17.34789 -102.39608,15.6736 z"
       id="path4552"
       inkscape:connector-curvature="0"
       transform="matrix(0.26458333,0,0,0.26458333,0,161.53332)" />
    <path
       style="opacity:1;fill:#05b0de;fill-opacity:0;stroke-width:0.71428573"
       d="m 242.829,511.42103 c -8.37576,-0.40379 -24.46878,-2.40715 -33.92857,-4.22362 C 168.88028,499.51267 132.78804,483.05956 99.257575,457.2153 89.550739,449.73356 66.080135,426.57039 58.39149,416.88449 26.592553,376.82527 7.8085382,330.80803 2.8845794,280.90321 1.7690504,269.59721 1.93754,241.23519 3.1904238,229.42012 8.3680863,180.59321 27.580964,134.02556 58.296871,95.854584 66.986222,85.056234 82.134911,69.626532 92.829004,60.68186 130.35641,29.293477 172.02343,10.684038 221.40043,3.2589363 233.82295,1.3908922 265.6348,0.62262982 279.05179,1.8666452 338.09358,7.3409679 391.49717,31.99617 433.80988,73.314884 c 63.33369,61.845866 89.94724,150.078126 71.5143,237.092296 -12.98038,61.27491 -49.54166,116.77606 -101.59748,154.22809 -15.1672,10.91218 -40.89964,24.59713 -58.50162,31.11216 -32.20398,11.91967 -67.6667,17.34789 -102.39608,15.6736 z"
       id="path4554"
       inkscape:connector-curvature="0"
       transform="matrix(0.26458333,0,0,0.26458333,0,161.53332)" />
    <path
       style="opacity:1;fill:#05b0de;fill-opacity:0;stroke-width:0.71428573"
       d="m 242.829,511.42103 c -8.37576,-0.40379 -24.46878,-2.40715 -33.92857,-4.22362 C 168.88028,499.51267 132.78804,483.05956 99.257575,457.2153 89.550739,449.73356 66.080135,426.57039 58.39149,416.88449 26.592553,376.82527 7.8085382,330.80803 2.8845794,280.90321 1.7690504,269.59721 1.93754,241.23519 3.1904238,229.42012 8.3680863,180.59321 27.580964,134.02556 58.296871,95.854584 66.986222,85.056234 82.134911,69.626532 92.829004,60.68186 130.35641,29.293477 172.02343,10.684038 221.40043,3.2589363 233.82295,1.3908922 265.6348,0.62262982 279.05179,1.8666452 338.09358,7.3409679 391.49717,31.99617 433.80988,73.314884 c 63.33369,61.845866 89.94724,150.078126 71.5143,237.092296 -12.98038,61.27491 -49.54166,116.77606 -101.59748,154.22809 -15.1672,10.91218 -40.89964,24.59713 -58.50162,31.11216 -32.20398,11.91967 -67.6667,17.34789 -102.39608,15.6736 z"
       id="path4556"
       inkscape:connector-curvature="0"
       transform="matrix(0.26458333,0,0,0.26458333,0,161.53332)" />
    <path
       style="opacity:1;fill:#05b0de;fill-opacity:0;stroke-width:0.71428573"
       d="m 242.829,511.42103 c -8.37576,-0.40379 -24.46878,-2.40715 -33.92857,-4.22362 C 168.88028,499.51267 132.78804,483.05956 99.257575,457.2153 89.550739,449.73356 66.080135,426.57039 58.39149,416.88449 26.592553,376.82527 7.8085382,330.80803 2.8845794,280.90321 1.7690504,269.59721 1.93754,241.23519 3.1904238,229.42012 8.3680863,180.59321 27.580964,134.02556 58.296871,95.854584 66.986222,85.056234 82.134911,69.626532 92.829004,60.68186 130.35641,29.293477 172.02343,10.684038 221.40043,3.2589363 233.82295,1.3908922 265.6348,0.62262982 279.05179,1.8666452 338.09358,7.3409679 391.49717,31.99617 433.80988,73.314884 c 63.33369,61.845866 89.94724,150.078126 71.5143,237.092296 -12.98038,61.27491 -49.54166,116.77606 -101.59748,154.22809 -15.1672,10.91218 -40.89964,24.59713 -58.50162,31.11216 -32.20398,11.91967 -67.6667,17.34789 -102.39608,15.6736 z"
       id="path4558"
       inkscape:connector-curvature="0"
       transform="matrix(0.26458333,0,0,0.26458333,0,161.53332)" />
    <path
       style="opacity:1;vector-effect:none;fill:#05b0de;fill-opacity:0;stroke-width:0.51020408;stroke-linecap:butt;stroke-linejoin:miter;stroke-miterlimit:4;stroke-dasharray:none;stroke-dashoffset:0;stroke-opacity:1"
       d="m 242.829,511.42103 c -8.37576,-0.40379 -24.46878,-2.40715 -33.92857,-4.22362 C 168.88028,499.51267 132.78804,483.05956 99.257575,457.2153 89.550739,449.73356 66.080135,426.57039 58.39149,416.88449 26.592553,376.82527 7.8085382,330.80803 2.8845794,280.90321 1.7690504,269.59721 1.93754,241.23519 3.1904238,229.42012 8.3680863,180.59321 27.580964,134.02556 58.296871,95.854584 66.986222,85.056234 82.134911,69.626532 92.829004,60.68186 130.35641,29.293477 172.02343,10.684038 221.40043,3.2589363 233.82295,1.3908922 265.6348,0.62262982 279.05179,1.8666452 338.09358,7.3409679 391.49717,31.99617 433.80988,73.314884 c 63.33369,61.845866 89.94724,150.078126 71.5143,237.092296 -12.98038,61.27491 -49.54166,116.77606 -101.59748,154.22809 -15.1672,10.91218 -40.89964,24.59713 -58.50162,31.11216 -32.20398,11.91967 -67.6667,17.34789 -102.39608,15.6736 z"
       id="path4560"
       inkscape:connector-curvature="0"
       transform="matrix(0.26458333,0,0,0.26458333,0,161.53332)" />
    <path
       style="opacity:1;vector-effect:none;fill:#05b0de;fill-opacity:0;stroke-width:0.51020408;stroke-linecap:butt;stroke-linejoin:miter;stroke-miterlimit:4;stroke-dasharray:none;stroke-dashoffset:0;stroke-opacity:1"
       d="m 242.829,511.42103 c -8.37576,-0.40379 -24.46878,-2.40715 -33.92857,-4.22362 C 168.88028,499.51267 132.78804,483.05956 99.257575,457.2153 89.550739,449.73356 66.080135,426.57039 58.39149,416.88449 26.592553,376.82527 7.8085382,330.80803 2.8845794,280.90321 1.7690504,269.59721 1.93754,241.23519 3.1904238,229.42012 8.3680863,180.59321 27.580964,134.02556 58.296871,95.854584 66.986222,85.056234 82.134911,69.626532 92.829004,60.68186 130.35641,29.293477 172.02343,10.684038 221.40043,3.2589363 233.82295,1.3908922 265.6348,0.62262982 279.05179,1.8666452 338.09358,7.3409679 391.49717,31.99617 433.80988,73.314884 c 63.33369,61.845866 89.94724,150.078126 71.5143,237.092296 -12.98038,61.27491 -49.54166,116.77606 -101.59748,154.22809 -15.1672,10.91218 -40.89964,24.59713 -58.50162,31.11216 -32.20398,11.91967 -67.6667,17.34789 -102.39608,15.6736 z"
       id="path4562"
       inkscape:connector-curvature="0"
       transform="matrix(0.26458333,0,0,0.26458333,0,161.53332)" />
    <path
       style="opacity:1;vector-effect:none;fill:#05b0de;fill-opacity:0;stroke-width:0.51020408;stroke-linecap:butt;stroke-linejoin:miter;stroke-miterlimit:4;stroke-dasharray:none;stroke-dashoffset:0;stroke-opacity:1"
       d="m 242.829,511.42103 c -8.37576,-0.40379 -24.46878,-2.40715 -33.92857,-4.22362 C 168.88028,499.51267 132.78804,483.05956 99.257575,457.2153 89.550739,449.73356 66.080135,426.57039 58.39149,416.88449 26.592553,376.82527 7.8085382,330.80803 2.8845794,280.90321 1.7690504,269.59721 1.93754,241.23519 3.1904238,229.42012 8.3680863,180.59321 27.580964,134.02556 58.296871,95.854584 66.986222,85.056234 82.134911,69.626532 92.829004,60.68186 130.35641,29.293477 172.02343,10.684038 221.40043,3.2589363 233.82295,1.3908922 265.6348,0.62262982 279.05179,1.8666452 338.09358,7.3409679 391.49717,31.99617 433.80988,73.314884 c 63.33369,61.845866 89.94724,150.078126 71.5143,237.092296 -12.98038,61.27491 -49.54166,116.77606 -101.59748,154.22809 -15.1672,10.91218 -40.89964,24.59713 -58.50162,31.11216 -32.20398,11.91967 -67.6667,17.34789 -102.39608,15.6736 z"
       id="path4564"
       inkscape:connector-curvature="0"
       transform="matrix(0.26458333,0,0,0.26458333,0,161.53332)" />
    <path
       style="opacity:1;fill:#05b0de;fill-opacity:0;stroke-width:0.71428573"
       d="m 242.829,511.42103 c -8.37576,-0.40379 -24.46878,-2.40715 -33.92857,-4.22362 C 168.88028,499.51267 132.78804,483.05956 99.257575,457.2153 89.550739,449.73356 66.080135,426.57039 58.39149,416.88449 26.592553,376.82527 7.8085382,330.80803 2.8845794,280.90321 1.7690504,269.59721 1.93754,241.23519 3.1904238,229.42012 8.3680863,180.59321 27.580964,134.02556 58.296871,95.854584 66.986222,85.056234 82.134911,69.626532 92.829004,60.68186 130.35641,29.293477 172.02343,10.684038 221.40043,3.2589363 233.82295,1.3908922 265.6348,0.62262982 279.05179,1.8666452 338.09358,7.3409679 391.49717,31.99617 433.80988,73.314884 c 63.33369,61.845866 89.94724,150.078126 71.5143,237.092296 -12.98038,61.27491 -49.54166,116.77606 -101.59748,154.22809 -15.1672,10.91218 -40.89964,24.59713 -58.50162,31.11216 -32.20398,11.91967 -67.6667,17.34789 -102.39608,15.6736 z"
       id="path4566"
       inkscape:connector-curvature="0"
       transform="matrix(0.26458333,0,0,0.26458333,0,161.53332)" />
    <text
       xml:space="preserve"
       style="font-style:normal;font-weight:normal;font-size:10.58333302px;line-height:1.25;font-family:sans-serif;letter-spacing:0px;word-spacing:0px;fill:#000000;fill-opacity:1;stroke:none;stroke-width:0.26458332"
       x="26.726954"
       y="272.67844"
       id="text4585"><tspan
         sodipodi:role="line"
         id="tspan4583"
         x="26.726954"
         y="272.67844"
         style="font-style:normal;font-variant:normal;font-weight:normal;font-stretch:normal;font-size:123.47222137px;font-family:AnjaliOldLipi;-inkscape-font-specification:'AnjaliOldLipi, Normal';font-variant-ligatures:normal;font-variant-caps:normal;font-variant-numeric:normal;font-feature-settings:normal;text-align:start;writing-mode:lr-tb;text-anchor:start;fill:#ffffff;stroke-width:0.26458332">S</tspan></text>
  </g>
</svg>
